<?xml version="1.0" encoding="utf-8" standalone="no"?>
<!DOCTYPE svg PUBLIC "-//W3C//DTD SVG 1.1//EN"
  "http://www.w3.org/Graphics/SVG/1.1/DTD/svg11.dtd">
<svg xmlns:xlink="http://www.w3.org/1999/xlink" width="414pt" height="330pt" viewBox="0 0 414 330" xmlns="http://www.w3.org/2000/svg" version="1.1">
 <metadata>
  <rdf:RDF xmlns:dc="http://purl.org/dc/elements/1.1/" xmlns:cc="http://creativecommons.org/ns#" xmlns:rdf="http://www.w3.org/1999/02/22-rdf-syntax-ns#">
   <cc:Work>
    <dc:type rdf:resource="http://purl.org/dc/dcmitype/StillImage"/>
    <dc:date>2026-09-17T11:12:30.308206</dc:date>
    <dc:format>image/svg+xml</dc:format>
    <dc:creator>
     <cc:Agent>
      <dc:title>Matplotlib v3.11.1, https://matplotlib.org/</dc:title>
     </cc:Agent>
    </dc:creator>
   </cc:Work>
  </rdf:RDF>
 </metadata>
 <defs>
  <style type="text/css">*{stroke-linejoin: round; stroke-linecap: butt}</style>
 </defs>
 <g id="figure_1">
  <g id="patch_1">
   <path d="M 0 330
L 414 330
L 414 0
L 0 0
z
" style="fill: #ffffff"/>
  </g>
  <g id="schematic">
   <g id="patch_2">
    <path d="M 14 74
L 79 74
L 92 38
L 27 38
z
" clip-path="url(#p322535ac07)" style="fill: #f2f2f2; stroke: #000000; stroke-width: 0.8; stroke-linejoin: miter"/>
   </g>
   <g id="patch_3">
    <path d="M 37.034545 44.496364
L 37.329091 44.496364
L 37.623636 44.496364
L 37.918182 44.496364
L 38.065455 44.643636
L 38.212727 44.790909
L 38.36 44.938182
L 38.507273 45.085455
L 38.654545 45.232727
L 38.801818 45.38
L 38.949091 45.527273
L 38.949091 45.821818
L 38.949091 46.116364
L 38.801818 46.263636
L 38.654545 46.410909
L 38.507273 46.558182
L 38.36 46.705455
L 38.212727 46.852727
L 38.065455 47
L 38.212727 47.147273
L 38.36 47.294545
L 38.507273 47.441818
L 38.654545 47.589091
L 38.654545 47.883636
L 38.654545 48.178182
L 38.654545 48.472727
L 38.654545 48.767273
L 38.801818 48.914545
L 38.949091 49.061818
L 38.949091 49.356364
L 39.096364 49.503636
L 39.243636 49.650909
L 39.390909 49.798182
L 39.685455 49.798182
L 39.832727 49.945455
L 39.98 50.092727
L 40.127273 50.24
L 40.274545 50.387273
L 40.421818 50.534545
L 40.421818 50.829091
L 40.274545 50.976364
L 39.98 50.976364
L 39.832727 51.123636
L 39.685455 51.270909
L 39.538182 51.123636
L 39.390909 50.976364
L 39.243636 50.829091
L 39.096364 50.681818
L 38.801818 50.681818
L 38.654545 50.534545
L 38.507273 50.387273
L 38.36 50.534545
L 38.36 50.829091
L 38.36 51.123636
L 38.36 51.418182
L 38.36 51.712727
L 38.36 52.007273
L 38.36 52.301818
L 38.507273 52.449091
L 38.654545 52.596364
L 38.654545 52.890909
L 38.654545 53.185455
L 38.801818 53.332727
L 38.949091 53.48
L 38.949091 53.774545
L 38.949091 54.069091
L 39.096364 54.216364
L 39.243636 54.363636
L 39.243636 54.658182
L 39.243636 54.952727
L 39.243636 55.247273
L 39.390909 55.394545
L 39.685455 55.394545
L 39.832727 55.541818
L 39.832727 55.836364
L 39.685455 55.983636
L 39.538182 56.130909
L 39.390909 56.278182
L 39.096364 56.278182
L 38.801818 56.278182
L 38.654545 56.425455
L 38.507273 56.572727
L 38.36 56.425455
L 38.212727 56.278182
L 38.065455 56.130909
L 38.065455 55.836364
L 37.918182 55.689091
L 37.770909 55.541818
L 37.770909 55.247273
L 37.770909 54.952727
L 37.770909 54.658182
L 37.623636 54.510909
L 37.476364 54.363636
L 37.476364 54.069091
L 37.476364 53.774545
L 37.329091 53.627273
L 37.181818 53.48
L 37.181818 53.185455
L 37.034545 53.038182
L 36.887273 53.185455
L 36.887273 53.48
L 36.887273 53.774545
L 36.74 53.921818
L 36.592727 54.069091
L 36.592727 54.363636
L 36.445455 54.510909
L 36.298182 54.658182
L 36.298182 54.952727
L 36.150909 55.1
L 36.003636 55.247273
L 35.856364 55.394545
L 35.709091 55.541818
L 35.709091 55.836364
L 35.709091 56.130909
L 35.561818 56.278182
L 35.414545 56.425455
L 35.267273 56.572727
L 35.12 56.425455
L 34.972727 56.278182
L 34.678182 56.278182
L 34.530909 56.130909
L 34.383636 55.983636
L 34.236364 55.836364
L 34.236364 55.541818
L 34.236364 55.247273
L 34.383636 55.1
L 34.530909 54.952727
L 34.678182 54.805455
L 34.825455 54.658182
L 34.825455 54.363636
L 34.972727 54.216364
L 35.12 54.069091
L 35.267273 53.921818
L 35.414545 53.774545
L 35.414545 53.48
L 35.414545 53.185455
L 35.561818 53.038182
L 35.709091 52.890909
L 35.709091 52.596364
L 35.709091 52.301818
L 35.709091 52.007273
L 35.709091 51.712727
L 35.709091 51.418182
L 35.709091 51.123636
L 35.709091 50.829091
L 35.709091 50.534545
L 35.561818 50.387273
L 35.414545 50.534545
L 35.414545 50.829091
L 35.414545 51.123636
L 35.267273 51.270909
L 35.12 51.418182
L 34.972727 51.565455
L 34.678182 51.565455
L 34.530909 51.418182
L 34.383636 51.270909
L 34.236364 51.123636
L 34.236364 50.829091
L 34.236364 50.534545
L 34.383636 50.387273
L 34.530909 50.24
L 34.530909 49.945455
L 34.530909 49.650909
L 34.678182 49.503636
L 34.825455 49.356364
L 34.825455 49.061818
L 34.825455 48.767273
L 34.972727 48.62
L 35.12 48.472727
L 35.267273 48.325455
L 35.414545 48.178182
L 35.561818 48.030909
L 35.709091 47.883636
L 35.856364 47.736364
L 36.003636 47.589091
L 36.150909 47.441818
L 36.298182 47.294545
L 36.445455 47.147273
L 36.592727 47
L 36.592727 46.705455
L 36.445455 46.558182
L 36.298182 46.410909
L 36.298182 46.116364
L 36.298182 45.821818
L 36.298182 45.527273
L 36.298182 45.232727
L 36.445455 45.085455
L 36.592727 44.938182
L 36.74 44.790909
L 36.887273 44.643636
L 37.034545 44.496364
z
" clip-path="url(#p322535ac07)" style="fill: #333333"/>
   </g>
   <g id="patch_4">
    <path d="M 60.434545 41.616364
L 60.729091 41.616364
L 61.023636 41.616364
L 61.318182 41.616364
L 61.465455 41.763636
L 61.612727 41.910909
L 61.76 42.058182
L 61.907273 42.205455
L 62.054545 42.352727
L 62.201818 42.5
L 62.349091 42.647273
L 62.349091 42.941818
L 62.349091 43.236364
L 62.201818 43.383636
L 62.054545 43.530909
L 61.907273 43.678182
L 61.76 43.825455
L 61.612727 43.972727
L 61.465455 44.12
L 61.612727 44.267273
L 61.76 44.414545
L 61.907273 44.561818
L 62.054545 44.709091
L 62.054545 45.003636
L 62.054545 45.298182
L 62.054545 45.592727
L 62.054545 45.887273
L 62.201818 46.034545
L 62.349091 46.181818
L 62.349091 46.476364
L 62.496364 46.623636
L 62.643636 46.770909
L 62.790909 46.918182
L 63.085455 46.918182
L 63.232727 47.065455
L 63.38 47.212727
L 63.527273 47.36
L 63.674545 47.507273
L 63.821818 47.654545
L 63.821818 47.949091
L 63.674545 48.096364
L 63.38 48.096364
L 63.232727 48.243636
L 63.085455 48.390909
L 62.938182 48.243636
L 62.790909 48.096364
L 62.643636 47.949091
L 62.496364 47.801818
L 62.201818 47.801818
L 62.054545 47.654545
L 61.907273 47.507273
L 61.76 47.654545
L 61.76 47.949091
L 61.76 48.243636
L 61.76 48.538182
L 61.76 48.832727
L 61.76 49.127273
L 61.76 49.421818
L 61.907273 49.569091
L 62.054545 49.716364
L 62.054545 50.010909
L 62.054545 50.305455
L 62.201818 50.452727
L 62.349091 50.6
L 62.349091 50.894545
L 62.349091 51.189091
L 62.496364 51.336364
L 62.643636 51.483636
L 62.643636 51.778182
L 62.643636 52.072727
L 62.643636 52.367273
L 62.790909 52.514545
L 63.085455 52.514545
L 63.232727 52.661818
L 63.232727 52.956364
L 63.085455 53.103636
L 62.938182 53.250909
L 62.790909 53.398182
L 62.496364 53.398182
L 62.201818 53.398182
L 62.054545 53.545455
L 61.907273 53.692727
L 61.76 53.545455
L 61.612727 53.398182
L 61.465455 53.250909
L 61.465455 52.956364
L 61.318182 52.809091
L 61.170909 52.661818
L 61.170909 52.367273
L 61.170909 52.072727
L 61.170909 51.778182
L 61.023636 51.630909
L 60.876364 51.483636
L 60.876364 51.189091
L 60.876364 50.894545
L 60.729091 50.747273
L 60.581818 50.6
L 60.581818 50.305455
L 60.434545 50.158182
L 60.287273 50.305455
L 60.287273 50.6
L 60.287273 50.894545
L 60.14 51.041818
L 59.992727 51.189091
L 59.992727 51.483636
L 59.845455 51.630909
L 59.698182 51.778182
L 59.698182 52.072727
L 59.550909 52.22
L 59.403636 52.367273
L 59.256364 52.514545
L 59.109091 52.661818
L 59.109091 52.956364
L 59.109091 53.250909
L 58.961818 53.398182
L 58.814545 53.545455
L 58.667273 53.692727
L 58.52 53.545455
L 58.372727 53.398182
L 58.078182 53.398182
L 57.930909 53.250909
L 57.783636 53.103636
L 57.636364 52.956364
L 57.636364 52.661818
L 57.636364 52.367273
L 57.783636 52.22
L 57.930909 52.072727
L 58.078182 51.925455
L 58.225455 51.778182
L 58.225455 51.483636
L 58.372727 51.336364
L 58.52 51.189091
L 58.667273 51.041818
L 58.814545 50.894545
L 58.814545 50.6
L 58.814545 50.305455
L 58.961818 50.158182
L 59.109091 50.010909
L 59.109091 49.716364
L 59.109091 49.421818
L 59.109091 49.127273
L 59.109091 48.832727
L 59.109091 48.538182
L 59.109091 48.243636
L 59.109091 47.949091
L 59.109091 47.654545
L 58.961818 47.507273
L 58.814545 47.654545
L 58.814545 47.949091
L 58.814545 48.243636
L 58.667273 48.390909
L 58.52 48.538182
L 58.372727 48.685455
L 58.078182 48.685455
L 57.930909 48.538182
L 57.783636 48.390909
L 57.636364 48.243636
L 57.636364 47.949091
L 57.636364 47.654545
L 57.783636 47.507273
L 57.930909 47.36
L 57.930909 47.065455
L 57.930909 46.770909
L 58.078182 46.623636
L 58.225455 46.476364
L 58.225455 46.181818
L 58.225455 45.887273
L 58.372727 45.74
L 58.52 45.592727
L 58.667273 45.445455
L 58.814545 45.298182
L 58.961818 45.150909
L 59.109091 45.003636
L 59.256364 44.856364
L 59.403636 44.709091
L 59.550909 44.561818
L 59.698182 44.414545
L 59.845455 44.267273
L 59.992727 44.12
L 59.992727 43.825455
L 59.845455 43.678182
L 59.698182 43.530909
L 59.698182 43.236364
L 59.698182 42.941818
L 59.698182 42.647273
L 59.698182 42.352727
L 59.845455 42.205455
L 59.992727 42.058182
L 60.14 41.910909
L 60.287273 41.763636
L 60.434545 41.616364
z
" clip-path="url(#p322535ac07)" style="fill: #333333"/>
   </g>
   <g id="patch_5">
    <path d="M 78.772727 58.896364
L 78.478182 58.896364
L 78.183636 58.896364
L 77.889091 58.896364
L 77.741818 59.043636
L 77.594545 59.190909
L 77.447273 59.338182
L 77.3 59.485455
L 77.152727 59.632727
L 77.005455 59.78
L 76.858182 59.927273
L 76.858182 60.221818
L 76.858182 60.516364
L 77.005455 60.663636
L 77.152727 60.810909
L 77.3 60.958182
L 77.447273 61.105455
L 77.594545 61.252727
L 77.741818 61.4
L 77.594545 61.547273
L 77.447273 61.694545
L 77.3 61.841818
L 77.152727 61.989091
L 77.152727 62.283636
L 77.152727 62.578182
L 77.152727 62.872727
L 77.152727 63.167273
L 77.005455 63.314545
L 76.858182 63.461818
L 76.858182 63.756364
L 76.710909 63.903636
L 76.563636 64.050909
L 76.416364 64.198182
L 76.121818 64.198182
L 75.974545 64.345455
L 75.827273 64.492727
L 75.68 64.64
L 75.532727 64.787273
L 75.385455 64.934545
L 75.385455 65.229091
L 75.532727 65.376364
L 75.827273 65.376364
L 75.974545 65.523636
L 76.121818 65.670909
L 76.269091 65.523636
L 76.416364 65.376364
L 76.563636 65.229091
L 76.710909 65.081818
L 77.005455 65.081818
L 77.152727 64.934545
L 77.3 64.787273
L 77.447273 64.934545
L 77.447273 65.229091
L 77.447273 65.523636
L 77.447273 65.818182
L 77.447273 66.112727
L 77.447273 66.407273
L 77.447273 66.701818
L 77.3 66.849091
L 77.152727 66.996364
L 77.152727 67.290909
L 77.152727 67.585455
L 77.005455 67.732727
L 76.858182 67.88
L 76.858182 68.174545
L 76.858182 68.469091
L 76.710909 68.616364
L 76.563636 68.763636
L 76.563636 69.058182
L 76.563636 69.352727
L 76.563636 69.647273
L 76.416364 69.794545
L 76.121818 69.794545
L 75.974545 69.941818
L 75.974545 70.236364
L 76.121818 70.383636
L 76.269091 70.530909
L 76.416364 70.678182
L 76.710909 70.678182
L 77.005455 70.678182
L 77.152727 70.825455
L 77.3 70.972727
L 77.447273 70.825455
L 77.594545 70.678182
L 77.741818 70.530909
L 77.741818 70.236364
L 77.889091 70.089091
L 78.036364 69.941818
L 78.036364 69.647273
L 78.036364 69.352727
L 78.036364 69.058182
L 78.183636 68.910909
L 78.330909 68.763636
L 78.330909 68.469091
L 78.330909 68.174545
L 78.478182 68.027273
L 78.625455 67.88
L 78.625455 67.585455
L 78.772727 67.438182
L 78.92 67.585455
L 78.92 67.88
L 78.92 68.174545
L 79.067273 68.321818
L 79.214545 68.469091
L 79.214545 68.763636
L 79.361818 68.910909
L 79.509091 69.058182
L 79.509091 69.352727
L 79.656364 69.5
L 79.803636 69.647273
L 79.950909 69.794545
L 80.098182 69.941818
L 80.098182 70.236364
L 80.098182 70.530909
L 80.245455 70.678182
L 80.392727 70.825455
L 80.54 70.972727
L 80.687273 70.825455
L 80.834545 70.678182
L 81.129091 70.678182
L 81.276364 70.530909
L 81.423636 70.383636
L 81.570909 70.236364
L 81.570909 69.941818
L 81.570909 69.647273
L 81.423636 69.5
L 81.276364 69.352727
L 81.129091 69.205455
L 80.981818 69.058182
L 80.981818 68.763636
L 80.834545 68.616364
L 80.687273 68.469091
L 80.54 68.321818
L 80.392727 68.174545
L 80.392727 67.88
L 80.392727 67.585455
L 80.245455 67.438182
L 80.098182 67.290909
L 80.098182 66.996364
L 80.098182 66.701818
L 80.098182 66.407273
L 80.098182 66.112727
L 80.098182 65.818182
L 80.098182 65.523636
L 80.098182 65.229091
L 80.098182 64.934545
L 80.245455 64.787273
L 80.392727 64.934545
L 80.392727 65.229091
L 80.392727 65.523636
L 80.54 65.670909
L 80.687273 65.818182
L 80.834545 65.965455
L 81.129091 65.965455
L 81.276364 65.818182
L 81.423636 65.670909
L 81.570909 65.523636
L 81.570909 65.229091
L 81.570909 64.934545
L 81.423636 64.787273
L 81.276364 64.64
L 81.276364 64.345455
L 81.276364 64.050909
L 81.129091 63.903636
L 80.981818 63.756364
L 80.981818 63.461818
L 80.981818 63.167273
L 80.834545 63.02
L 80.687273 62.872727
L 80.54 62.725455
L 80.392727 62.578182
L 80.245455 62.430909
L 80.098182 62.283636
L 79.950909 62.136364
L 79.803636 61.989091
L 79.656364 61.841818
L 79.509091 61.694545
L 79.361818 61.547273
L 79.214545 61.4
L 79.214545 61.105455
L 79.361818 60.958182
L 79.509091 60.810909
L 79.509091 60.516364
L 79.509091 60.221818
L 79.509091 59.927273
L 79.509091 59.632727
L 79.361818 59.485455
L 79.214545 59.338182
L 79.067273 59.190909
L 78.92 59.043636
L 78.772727 58.896364
z
" clip-path="url(#p322535ac07)" style="fill: #333333"/>
   </g>
   <g id="patch_6">
    <path d="M 33.5 41.6
Q 52.61 41.6 70.713769 41.6
" clip-path="url(#p322535ac07)" style="fill: none; stroke: #000000; stroke-width: 0.9; stroke-linecap: round"/>
    <path d="M 66.713769 39.6
L 70.713769 41.6
L 66.713769 43.6
z
" clip-path="url(#p322535ac07)" style="stroke: #000000; stroke-width: 0.9; stroke-linecap: round"/>
   </g>
   <g id="patch_7">
    <path d="M 80.3 71.12
Q 68.21 71.12 57.126231 71.12
" clip-path="url(#p322535ac07)" style="fill: none; stroke: #000000; stroke-width: 0.9; stroke-linecap: round"/>
    <path d="M 61.126231 73.12
L 57.126231 71.12
L 61.126231 69.12
z
" clip-path="url(#p322535ac07)" style="stroke: #000000; stroke-width: 0.9; stroke-linecap: round"/>
   </g>
   <g id="patch_8">
    <path d="M 116 74
L 181 74
L 194 38
L 129 38
z
" clip-path="url(#p322535ac07)" style="fill: #f2f2f2; stroke: #000000; stroke-width: 0.8; stroke-linejoin: miter"/>
   </g>
   <g id="patch_9">
    <path d="M 139.034545 44.496364
L 139.329091 44.496364
L 139.623636 44.496364
L 139.918182 44.496364
L 140.065455 44.643636
L 140.212727 44.790909
L 140.36 44.938182
L 140.507273 45.085455
L 140.654545 45.232727
L 140.801818 45.38
L 140.949091 45.527273
L 140.949091 45.821818
L 140.949091 46.116364
L 140.801818 46.263636
L 140.654545 46.410909
L 140.507273 46.558182
L 140.36 46.705455
L 140.212727 46.852727
L 140.065455 47
L 140.212727 47.147273
L 140.36 47.294545
L 140.507273 47.441818
L 140.654545 47.589091
L 140.654545 47.883636
L 140.654545 48.178182
L 140.654545 48.472727
L 140.654545 48.767273
L 140.801818 48.914545
L 140.949091 49.061818
L 140.949091 49.356364
L 141.096364 49.503636
L 141.243636 49.650909
L 141.390909 49.798182
L 141.685455 49.798182
L 141.832727 49.945455
L 141.98 50.092727
L 142.127273 50.24
L 142.274545 50.387273
L 142.421818 50.534545
L 142.421818 50.829091
L 142.274545 50.976364
L 141.98 50.976364
L 141.832727 51.123636
L 141.685455 51.270909
L 141.538182 51.123636
L 141.390909 50.976364
L 141.243636 50.829091
L 141.096364 50.681818
L 140.801818 50.681818
L 140.654545 50.534545
L 140.507273 50.387273
L 140.36 50.534545
L 140.36 50.829091
L 140.36 51.123636
L 140.36 51.418182
L 140.36 51.712727
L 140.36 52.007273
L 140.36 52.301818
L 140.507273 52.449091
L 140.654545 52.596364
L 140.654545 52.890909
L 140.654545 53.185455
L 140.801818 53.332727
L 140.949091 53.48
L 140.949091 53.774545
L 140.949091 54.069091
L 141.096364 54.216364
L 141.243636 54.363636
L 141.243636 54.658182
L 141.243636 54.952727
L 141.243636 55.247273
L 141.390909 55.394545
L 141.685455 55.394545
L 141.832727 55.541818
L 141.832727 55.836364
L 141.685455 55.983636
L 141.538182 56.130909
L 141.390909 56.278182
L 141.096364 56.278182
L 140.801818 56.278182
L 140.654545 56.425455
L 140.507273 56.572727
L 140.36 56.425455
L 140.212727 56.278182
L 140.065455 56.130909
L 140.065455 55.836364
L 139.918182 55.689091
L 139.770909 55.541818
L 139.770909 55.247273
L 139.770909 54.952727
L 139.770909 54.658182
L 139.623636 54.510909
L 139.476364 54.363636
L 139.476364 54.069091
L 139.476364 53.774545
L 139.329091 53.627273
L 139.181818 53.48
L 139.181818 53.185455
L 139.034545 53.038182
L 138.887273 53.185455
L 138.887273 53.48
L 138.887273 53.774545
L 138.74 53.921818
L 138.592727 54.069091
L 138.592727 54.363636
L 138.445455 54.510909
L 138.298182 54.658182
L 138.298182 54.952727
L 138.150909 55.1
L 138.003636 55.247273
L 137.856364 55.394545
L 137.709091 55.541818
L 137.709091 55.836364
L 137.709091 56.130909
L 137.561818 56.278182
L 137.414545 56.425455
L 137.267273 56.572727
L 137.12 56.425455
L 136.972727 56.278182
L 136.678182 56.278182
L 136.530909 56.130909
L 136.383636 55.983636
L 136.236364 55.836364
L 136.236364 55.541818
L 136.236364 55.247273
L 136.383636 55.1
L 136.530909 54.952727
L 136.678182 54.805455
L 136.825455 54.658182
L 136.825455 54.363636
L 136.972727 54.216364
L 137.12 54.069091
L 137.267273 53.921818
L 137.414545 53.774545
L 137.414545 53.48
L 137.414545 53.185455
L 137.561818 53.038182
L 137.709091 52.890909
L 137.709091 52.596364
L 137.709091 52.301818
L 137.709091 52.007273
L 137.709091 51.712727
L 137.709091 51.418182
L 137.709091 51.123636
L 137.709091 50.829091
L 137.709091 50.534545
L 137.561818 50.387273
L 137.414545 50.534545
L 137.414545 50.829091
L 137.414545 51.123636
L 137.267273 51.270909
L 137.12 51.418182
L 136.972727 51.565455
L 136.678182 51.565455
L 136.530909 51.418182
L 136.383636 51.270909
L 136.236364 51.123636
L 136.236364 50.829091
L 136.236364 50.534545
L 136.383636 50.387273
L 136.530909 50.24
L 136.530909 49.945455
L 136.530909 49.650909
L 136.678182 49.503636
L 136.825455 49.356364
L 136.825455 49.061818
L 136.825455 48.767273
L 136.972727 48.62
L 137.12 48.472727
L 137.267273 48.325455
L 137.414545 48.178182
L 137.561818 48.030909
L 137.709091 47.883636
L 137.856364 47.736364
L 138.003636 47.589091
L 138.150909 47.441818
L 138.298182 47.294545
L 138.445455 47.147273
L 138.592727 47
L 138.592727 46.705455
L 138.445455 46.558182
L 138.298182 46.410909
L 138.298182 46.116364
L 138.298182 45.821818
L 138.298182 45.527273
L 138.298182 45.232727
L 138.445455 45.085455
L 138.592727 44.938182
L 138.74 44.790909
L 138.887273 44.643636
L 139.034545 44.496364
z
" clip-path="url(#p322535ac07)" style="fill: #333333"/>
   </g>
   <g id="patch_10">
    <path d="M 162.434545 41.616364
L 162.729091 41.616364
L 163.023636 41.616364
L 163.318182 41.616364
L 163.465455 41.763636
L 163.612727 41.910909
L 163.76 42.058182
L 163.907273 42.205455
L 164.054545 42.352727
L 164.201818 42.5
L 164.349091 42.647273
L 164.349091 42.941818
L 164.349091 43.236364
L 164.201818 43.383636
L 164.054545 43.530909
L 163.907273 43.678182
L 163.76 43.825455
L 163.612727 43.972727
L 163.465455 44.12
L 163.612727 44.267273
L 163.76 44.414545
L 163.907273 44.561818
L 164.054545 44.709091
L 164.054545 45.003636
L 164.054545 45.298182
L 164.054545 45.592727
L 164.054545 45.887273
L 164.201818 46.034545
L 164.349091 46.181818
L 164.349091 46.476364
L 164.496364 46.623636
L 164.643636 46.770909
L 164.790909 46.918182
L 165.085455 46.918182
L 165.232727 47.065455
L 165.38 47.212727
L 165.527273 47.36
L 165.674545 47.507273
L 165.821818 47.654545
L 165.821818 47.949091
L 165.674545 48.096364
L 165.38 48.096364
L 165.232727 48.243636
L 165.085455 48.390909
L 164.938182 48.243636
L 164.790909 48.096364
L 164.643636 47.949091
L 164.496364 47.801818
L 164.201818 47.801818
L 164.054545 47.654545
L 163.907273 47.507273
L 163.76 47.654545
L 163.76 47.949091
L 163.76 48.243636
L 163.76 48.538182
L 163.76 48.832727
L 163.76 49.127273
L 163.76 49.421818
L 163.907273 49.569091
L 164.054545 49.716364
L 164.054545 50.010909
L 164.054545 50.305455
L 164.201818 50.452727
L 164.349091 50.6
L 164.349091 50.894545
L 164.349091 51.189091
L 164.496364 51.336364
L 164.643636 51.483636
L 164.643636 51.778182
L 164.643636 52.072727
L 164.643636 52.367273
L 164.790909 52.514545
L 165.085455 52.514545
L 165.232727 52.661818
L 165.232727 52.956364
L 165.085455 53.103636
L 164.938182 53.250909
L 164.790909 53.398182
L 164.496364 53.398182
L 164.201818 53.398182
L 164.054545 53.545455
L 163.907273 53.692727
L 163.76 53.545455
L 163.612727 53.398182
L 163.465455 53.250909
L 163.465455 52.956364
L 163.318182 52.809091
L 163.170909 52.661818
L 163.170909 52.367273
L 163.170909 52.072727
L 163.170909 51.778182
L 163.023636 51.630909
L 162.876364 51.483636
L 162.876364 51.189091
L 162.876364 50.894545
L 162.729091 50.747273
L 162.581818 50.6
L 162.581818 50.305455
L 162.434545 50.158182
L 162.287273 50.305455
L 162.287273 50.6
L 162.287273 50.894545
L 162.14 51.041818
L 161.992727 51.189091
L 161.992727 51.483636
L 161.845455 51.630909
L 161.698182 51.778182
L 161.698182 52.072727
L 161.550909 52.22
L 161.403636 52.367273
L 161.256364 52.514545
L 161.109091 52.661818
L 161.109091 52.956364
L 161.109091 53.250909
L 160.961818 53.398182
L 160.814545 53.545455
L 160.667273 53.692727
L 160.52 53.545455
L 160.372727 53.398182
L 160.078182 53.398182
L 159.930909 53.250909
L 159.783636 53.103636
L 159.636364 52.956364
L 159.636364 52.661818
L 159.636364 52.367273
L 159.783636 52.22
L 159.930909 52.072727
L 160.078182 51.925455
L 160.225455 51.778182
L 160.225455 51.483636
L 160.372727 51.336364
L 160.52 51.189091
L 160.667273 51.041818
L 160.814545 50.894545
L 160.814545 50.6
L 160.814545 50.305455
L 160.961818 50.158182
L 161.109091 50.010909
L 161.109091 49.716364
L 161.109091 49.421818
L 161.109091 49.127273
L 161.109091 48.832727
L 161.109091 48.538182
L 161.109091 48.243636
L 161.109091 47.949091
L 161.109091 47.654545
L 160.961818 47.507273
L 160.814545 47.654545
L 160.814545 47.949091
L 160.814545 48.243636
L 160.667273 48.390909
L 160.52 48.538182
L 160.372727 48.685455
L 160.078182 48.685455
L 159.930909 48.538182
L 159.783636 48.390909
L 159.636364 48.243636
L 159.636364 47.949091
L 159.636364 47.654545
L 159.783636 47.507273
L 159.930909 47.36
L 159.930909 47.065455
L 159.930909 46.770909
L 160.078182 46.623636
L 160.225455 46.476364
L 160.225455 46.181818
L 160.225455 45.887273
L 160.372727 45.74
L 160.52 45.592727
L 160.667273 45.445455
L 160.814545 45.298182
L 160.961818 45.150909
L 161.109091 45.003636
L 161.256364 44.856364
L 161.403636 44.709091
L 161.550909 44.561818
L 161.698182 44.414545
L 161.845455 44.267273
L 161.992727 44.12
L 161.992727 43.825455
L 161.845455 43.678182
L 161.698182 43.530909
L 161.698182 43.236364
L 161.698182 42.941818
L 161.698182 42.647273
L 161.698182 42.352727
L 161.845455 42.205455
L 161.992727 42.058182
L 162.14 41.910909
L 162.287273 41.763636
L 162.434545 41.616364
z
" clip-path="url(#p322535ac07)" style="fill: #333333"/>
   </g>
   <g id="patch_11">
    <path d="M 180.772727 58.896364
L 180.478182 58.896364
L 180.183636 58.896364
L 179.889091 58.896364
L 179.741818 59.043636
L 179.594545 59.190909
L 179.447273 59.338182
L 179.3 59.485455
L 179.152727 59.632727
L 179.005455 59.78
L 178.858182 59.927273
L 178.858182 60.221818
L 178.858182 60.516364
L 179.005455 60.663636
L 179.152727 60.810909
L 179.3 60.958182
L 179.447273 61.105455
L 179.594545 61.252727
L 179.741818 61.4
L 179.594545 61.547273
L 179.447273 61.694545
L 179.3 61.841818
L 179.152727 61.989091
L 179.152727 62.283636
L 179.152727 62.578182
L 179.152727 62.872727
L 179.152727 63.167273
L 179.005455 63.314545
L 178.858182 63.461818
L 178.858182 63.756364
L 178.710909 63.903636
L 178.563636 64.050909
L 178.416364 64.198182
L 178.121818 64.198182
L 177.974545 64.345455
L 177.827273 64.492727
L 177.68 64.64
L 177.532727 64.787273
L 177.385455 64.934545
L 177.385455 65.229091
L 177.532727 65.376364
L 177.827273 65.376364
L 177.974545 65.523636
L 178.121818 65.670909
L 178.269091 65.523636
L 178.416364 65.376364
L 178.563636 65.229091
L 178.710909 65.081818
L 179.005455 65.081818
L 179.152727 64.934545
L 179.3 64.787273
L 179.447273 64.934545
L 179.447273 65.229091
L 179.447273 65.523636
L 179.447273 65.818182
L 179.447273 66.112727
L 179.447273 66.407273
L 179.447273 66.701818
L 179.3 66.849091
L 179.152727 66.996364
L 179.152727 67.290909
L 179.152727 67.585455
L 179.005455 67.732727
L 178.858182 67.88
L 178.858182 68.174545
L 178.858182 68.469091
L 178.710909 68.616364
L 178.563636 68.763636
L 178.563636 69.058182
L 178.563636 69.352727
L 178.563636 69.647273
L 178.416364 69.794545
L 178.121818 69.794545
L 177.974545 69.941818
L 177.974545 70.236364
L 178.121818 70.383636
L 178.269091 70.530909
L 178.416364 70.678182
L 178.710909 70.678182
L 179.005455 70.678182
L 179.152727 70.825455
L 179.3 70.972727
L 179.447273 70.825455
L 179.594545 70.678182
L 179.741818 70.530909
L 179.741818 70.236364
L 179.889091 70.089091
L 180.036364 69.941818
L 180.036364 69.647273
L 180.036364 69.352727
L 180.036364 69.058182
L 180.183636 68.910909
L 180.330909 68.763636
L 180.330909 68.469091
L 180.330909 68.174545
L 180.478182 68.027273
L 180.625455 67.88
L 180.625455 67.585455
L 180.772727 67.438182
L 180.92 67.585455
L 180.92 67.88
L 180.92 68.174545
L 181.067273 68.321818
L 181.214545 68.469091
L 181.214545 68.763636
L 181.361818 68.910909
L 181.509091 69.058182
L 181.509091 69.352727
L 181.656364 69.5
L 181.803636 69.647273
L 181.950909 69.794545
L 182.098182 69.941818
L 182.098182 70.236364
L 182.098182 70.530909
L 182.245455 70.678182
L 182.392727 70.825455
L 182.54 70.972727
L 182.687273 70.825455
L 182.834545 70.678182
L 183.129091 70.678182
L 183.276364 70.530909
L 183.423636 70.383636
L 183.570909 70.236364
L 183.570909 69.941818
L 183.570909 69.647273
L 183.423636 69.5
L 183.276364 69.352727
L 183.129091 69.205455
L 182.981818 69.058182
L 182.981818 68.763636
L 182.834545 68.616364
L 182.687273 68.469091
L 182.54 68.321818
L 182.392727 68.174545
L 182.392727 67.88
L 182.392727 67.585455
L 182.245455 67.438182
L 182.098182 67.290909
L 182.098182 66.996364
L 182.098182 66.701818
L 182.098182 66.407273
L 182.098182 66.112727
L 182.098182 65.818182
L 182.098182 65.523636
L 182.098182 65.229091
L 182.098182 64.934545
L 182.245455 64.787273
L 182.392727 64.934545
L 182.392727 65.229091
L 182.392727 65.523636
L 182.54 65.670909
L 182.687273 65.818182
L 182.834545 65.965455
L 183.129091 65.965455
L 183.276364 65.818182
L 183.423636 65.670909
L 183.570909 65.523636
L 183.570909 65.229091
L 183.570909 64.934545
L 183.423636 64.787273
L 183.276364 64.64
L 183.276364 64.345455
L 183.276364 64.050909
L 183.129091 63.903636
L 182.981818 63.756364
L 182.981818 63.461818
L 182.981818 63.167273
L 182.834545 63.02
L 182.687273 62.872727
L 182.54 62.725455
L 182.392727 62.578182
L 182.245455 62.430909
L 182.098182 62.283636
L 181.950909 62.136364
L 181.803636 61.989091
L 181.656364 61.841818
L 181.509091 61.694545
L 181.361818 61.547273
L 181.214545 61.4
L 181.214545 61.105455
L 181.361818 60.958182
L 181.509091 60.810909
L 181.509091 60.516364
L 181.509091 60.221818
L 181.509091 59.927273
L 181.509091 59.632727
L 181.361818 59.485455
L 181.214545 59.338182
L 181.067273 59.190909
L 180.92 59.043636
L 180.772727 58.896364
z
" clip-path="url(#p322535ac07)" style="fill: #333333"/>
   </g>
   <g id="patch_12">
    <path d="M 130.12 54.6968
L 130.3648 54.6968
L 130.4872 54.8192
L 130.6096 54.9416
L 130.732 55.064
L 130.732 55.3088
L 130.732 55.5536
L 130.732 55.7984
L 130.732 56.0432
L 130.732 56.288
L 130.732 56.5328
L 130.732 56.7776
L 130.732 57.0224
L 130.732 57.2672
L 130.732 57.512
L 130.732 57.7568
L 130.732 58.0016
L 130.8544 58.124
L 131.0992 58.124
L 131.2216 58.2464
L 131.2216 58.4912
L 131.2216 58.736
L 131.344 58.8584
L 131.5888 58.8584
L 131.8336 58.8584
L 132.0784 58.8584
L 132.3232 58.8584
L 132.568 58.8584
L 132.8128 58.8584
L 133.0576 58.8584
L 133.3024 58.8584
L 133.5472 58.8584
L 133.792 58.8584
L 133.9144 58.9808
L 134.0368 59.1032
L 134.1592 59.2256
L 134.2816 59.348
L 134.404 59.4704
L 134.5264 59.5928
L 134.6488 59.7152
L 134.7712 59.8376
L 134.8936 59.96
L 135.016 60.0824
L 135.1384 60.2048
L 135.1384 60.4496
L 135.1384 60.6944
L 135.2608 60.8168
L 135.3832 60.9392
L 135.3832 61.184
L 135.3832 61.4288
L 135.3832 61.6736
L 135.5056 61.796
L 135.628 61.9184
L 135.628 62.1632
L 135.628 62.408
L 135.628 62.6528
L 135.628 62.8976
L 135.628 63.1424
L 135.628 63.3872
L 135.628 63.632
L 135.628 63.8768
L 135.628 64.1216
L 135.628 64.3664
L 135.628 64.6112
L 135.628 64.856
L 135.628 65.1008
L 135.628 65.3456
L 135.628 65.5904
L 135.628 65.8352
L 135.628 66.08
L 135.628 66.3248
L 135.628 66.5696
L 135.628 66.8144
L 135.628 67.0592
L 135.628 67.304
L 135.628 67.5488
L 135.628 67.7936
L 135.5056 67.916
L 135.3832 68.0384
L 135.3832 68.2832
L 135.3832 68.528
L 135.2608 68.6504
L 135.1384 68.7728
L 135.016 68.8952
L 134.8936 69.0176
L 134.8936 69.2624
L 134.8936 69.5072
L 134.8936 69.752
L 134.7712 69.8744
L 134.6488 69.9968
L 134.6488 70.2416
L 134.5264 70.364
L 134.404 70.4864
L 134.2816 70.6088
L 134.1592 70.7312
L 134.0368 70.8536
L 133.792 70.8536
L 133.6696 70.976
L 133.5472 71.0984
L 133.3024 71.0984
L 133.0576 71.0984
L 132.8128 71.0984
L 132.6904 70.976
L 132.568 70.8536
L 132.3232 70.8536
L 132.2008 70.7312
L 132.0784 70.6088
L 131.956 70.4864
L 131.8336 70.364
L 131.7112 70.2416
L 131.7112 69.9968
L 131.5888 69.8744
L 131.4664 69.752
L 131.344 69.6296
L 131.0992 69.6296
L 130.8544 69.6296
L 130.6096 69.6296
L 130.3648 69.6296
L 130.12 69.6296
L 129.8752 69.6296
L 129.6304 69.6296
L 129.3856 69.6296
L 129.1408 69.6296
L 129.0184 69.752
L 129.0184 69.9968
L 128.896 70.1192
L 128.7736 70.2416
L 128.6512 70.364
L 128.5288 70.4864
L 128.4064 70.6088
L 128.284 70.7312
L 128.1616 70.8536
L 127.9168 70.8536
L 127.7944 70.976
L 127.672 71.0984
L 127.4272 71.0984
L 127.1824 71.0984
L 127.06 70.976
L 126.9376 70.8536
L 126.6928 70.8536
L 126.5704 70.7312
L 126.448 70.6088
L 126.3256 70.4864
L 126.2032 70.364
L 126.0808 70.2416
L 125.9584 70.1192
L 125.836 69.9968
L 125.836 69.752
L 125.7136 69.6296
L 125.5912 69.5072
L 125.5912 69.2624
L 125.5912 69.0176
L 125.4688 68.8952
L 125.3464 68.7728
L 125.3464 68.528
L 125.224 68.4056
L 125.1016 68.2832
L 125.1016 68.0384
L 125.1016 67.7936
L 125.1016 67.5488
L 125.1016 67.304
L 125.1016 67.0592
L 125.1016 66.8144
L 125.1016 66.5696
L 125.1016 66.3248
L 125.1016 66.08
L 125.1016 65.8352
L 125.1016 65.5904
L 125.1016 65.3456
L 125.1016 65.1008
L 125.1016 64.856
L 125.1016 64.6112
L 125.1016 64.3664
L 125.1016 64.1216
L 125.1016 63.8768
L 125.1016 63.632
L 125.1016 63.3872
L 125.1016 63.1424
L 125.1016 62.8976
L 125.1016 62.6528
L 125.1016 62.408
L 125.1016 62.1632
L 125.1016 61.9184
L 125.1016 61.6736
L 125.1016 61.4288
L 125.224 61.3064
L 125.3464 61.184
L 125.3464 60.9392
L 125.3464 60.6944
L 125.3464 60.4496
L 125.4688 60.3272
L 125.5912 60.2048
L 125.7136 60.0824
L 125.836 59.96
L 125.836 59.7152
L 125.9584 59.5928
L 126.0808 59.4704
L 126.2032 59.348
L 126.3256 59.2256
L 126.448 59.1032
L 126.6928 59.1032
L 126.8152 58.9808
L 126.9376 58.8584
L 127.1824 58.8584
L 127.4272 58.8584
L 127.672 58.8584
L 127.9168 58.8584
L 128.1616 58.8584
L 128.4064 58.8584
L 128.6512 58.8584
L 128.896 58.8584
L 129.1408 58.8584
L 129.2632 58.736
L 129.2632 58.4912
L 129.3856 58.3688
L 129.508 58.2464
L 129.6304 58.124
L 129.7528 58.0016
L 129.7528 57.7568
L 129.7528 57.512
L 129.7528 57.2672
L 129.7528 57.0224
L 129.7528 56.7776
L 129.7528 56.5328
L 129.7528 56.288
L 129.7528 56.0432
L 129.7528 55.7984
L 129.7528 55.5536
L 129.7528 55.3088
L 129.7528 55.064
L 129.8752 54.9416
L 129.9976 54.8192
L 130.12 54.6968
z
M 127.1824 59.5928
L 127.06 59.7152
L 126.9376 59.8376
L 126.8152 59.96
L 126.6928 60.0824
L 126.5704 60.2048
L 126.448 60.3272
L 126.3256 60.4496
L 126.2032 60.572
L 126.0808 60.6944
L 126.0808 60.9392
L 126.0808 61.184
L 126.0808 61.4288
L 126.0808 61.6736
L 126.0808 61.9184
L 125.9584 62.0408
L 125.836 62.1632
L 125.836 62.408
L 125.836 62.6528
L 125.836 62.8976
L 125.836 63.1424
L 125.836 63.3872
L 125.836 63.632
L 125.836 63.8768
L 125.836 64.1216
L 125.836 64.3664
L 125.836 64.6112
L 125.836 64.856
L 125.836 65.1008
L 125.836 65.3456
L 125.836 65.5904
L 125.836 65.8352
L 125.836 66.08
L 125.836 66.3248
L 125.836 66.5696
L 125.836 66.8144
L 125.836 67.0592
L 125.9584 67.1816
L 126.2032 67.1816
L 126.448 67.1816
L 126.6928 67.1816
L 126.9376 67.1816
L 127.1824 67.1816
L 127.4272 67.1816
L 127.672 67.1816
L 127.9168 67.1816
L 128.1616 67.1816
L 128.4064 67.1816
L 128.6512 67.1816
L 128.896 67.1816
L 129.1408 67.1816
L 129.3856 67.1816
L 129.6304 67.1816
L 129.8752 67.1816
L 130.12 67.1816
L 130.3648 67.1816
L 130.6096 67.1816
L 130.8544 67.1816
L 131.0992 67.1816
L 131.344 67.1816
L 131.5888 67.1816
L 131.8336 67.1816
L 132.0784 67.1816
L 132.3232 67.1816
L 132.568 67.1816
L 132.8128 67.1816
L 133.0576 67.1816
L 133.3024 67.1816
L 133.5472 67.1816
L 133.792 67.1816
L 134.0368 67.1816
L 134.2816 67.1816
L 134.5264 67.1816
L 134.6488 67.0592
L 134.6488 66.8144
L 134.6488 66.5696
L 134.6488 66.3248
L 134.6488 66.08
L 134.6488 65.8352
L 134.6488 65.5904
L 134.6488 65.3456
L 134.6488 65.1008
L 134.6488 64.856
L 134.6488 64.6112
L 134.6488 64.3664
L 134.6488 64.1216
L 134.6488 63.8768
L 134.6488 63.632
L 134.6488 63.3872
L 134.6488 63.1424
L 134.6488 62.8976
L 134.6488 62.6528
L 134.6488 62.408
L 134.5264 62.2856
L 134.2816 62.2856
L 134.0368 62.2856
L 133.792 62.2856
L 133.5472 62.2856
L 133.3024 62.2856
L 133.0576 62.2856
L 132.8128 62.2856
L 132.568 62.2856
L 132.3232 62.2856
L 132.0784 62.2856
L 131.8336 62.2856
L 131.5888 62.2856
L 131.344 62.2856
L 131.0992 62.2856
L 130.8544 62.2856
L 130.6096 62.2856
L 130.3648 62.2856
L 130.12 62.2856
L 129.8752 62.2856
L 129.6304 62.2856
L 129.3856 62.2856
L 129.1408 62.2856
L 128.896 62.2856
L 128.6512 62.2856
L 128.4064 62.2856
L 128.1616 62.2856
L 127.9168 62.2856
L 127.672 62.2856
L 127.5496 62.1632
L 127.4272 62.0408
L 127.3048 61.9184
L 127.3048 61.6736
L 127.3048 61.4288
L 127.3048 61.184
L 127.4272 61.0616
L 127.672 61.0616
L 127.9168 61.0616
L 128.1616 61.0616
L 128.4064 61.0616
L 128.6512 61.0616
L 128.896 61.0616
L 129.1408 61.0616
L 129.3856 61.0616
L 129.6304 61.0616
L 129.8752 61.0616
L 130.12 61.0616
L 130.3648 61.0616
L 130.6096 61.0616
L 130.8544 61.0616
L 131.0992 61.0616
L 131.344 61.0616
L 131.5888 61.0616
L 131.8336 61.0616
L 132.0784 61.0616
L 132.3232 61.0616
L 132.568 61.0616
L 132.8128 61.0616
L 133.0576 61.0616
L 133.3024 61.0616
L 133.5472 61.0616
L 133.6696 61.184
L 133.792 61.3064
L 134.0368 61.3064
L 134.2816 61.3064
L 134.404 61.184
L 134.5264 61.0616
L 134.6488 60.9392
L 134.5264 60.8168
L 134.404 60.6944
L 134.2816 60.572
L 134.1592 60.4496
L 134.1592 60.2048
L 134.0368 60.0824
L 133.9144 59.96
L 133.792 59.8376
L 133.6696 59.7152
L 133.5472 59.5928
L 133.3024 59.5928
L 133.0576 59.5928
L 132.8128 59.5928
L 132.568 59.5928
L 132.3232 59.5928
L 132.0784 59.5928
L 131.8336 59.5928
L 131.5888 59.5928
L 131.344 59.5928
L 131.0992 59.5928
L 130.8544 59.5928
L 130.6096 59.5928
L 130.3648 59.5928
L 130.12 59.5928
L 129.8752 59.5928
L 129.6304 59.5928
L 129.3856 59.5928
L 129.1408 59.5928
L 128.896 59.5928
L 128.6512 59.5928
L 128.4064 59.5928
L 128.1616 59.5928
L 127.9168 59.5928
L 127.672 59.5928
L 127.4272 59.5928
L 127.1824 59.5928
z
M 132.8128 62.5304
L 133.0576 62.5304
L 133.3024 62.5304
L 133.4248 62.6528
L 133.5472 62.7752
L 133.6696 62.8976
L 133.6696 63.1424
L 133.6696 63.3872
L 133.5472 63.5096
L 133.4248 63.632
L 133.3024 63.7544
L 133.0576 63.7544
L 132.8128 63.7544
L 132.6904 63.632
L 132.6904 63.3872
L 132.568 63.2648
L 132.4456 63.1424
L 132.4456 62.8976
L 132.568 62.7752
L 132.6904 62.6528
L 132.8128 62.5304
z
M 127.4272 68.4056
L 127.3048 68.528
L 127.1824 68.6504
L 127.06 68.7728
L 127.06 69.0176
L 127.06 69.2624
L 127.1824 69.3848
L 127.4272 69.3848
L 127.672 69.3848
L 127.7944 69.2624
L 127.7944 69.0176
L 127.7944 68.7728
L 127.7944 68.528
L 127.672 68.4056
L 127.4272 68.4056
z
M 133.0576 68.4056
L 132.9352 68.528
L 132.8128 68.6504
L 132.6904 68.7728
L 132.6904 69.0176
L 132.6904 69.2624
L 132.8128 69.3848
L 133.0576 69.3848
L 133.3024 69.3848
L 133.4248 69.2624
L 133.5472 69.14
L 133.6696 69.0176
L 133.6696 68.7728
L 133.5472 68.6504
L 133.4248 68.528
L 133.3024 68.4056
L 133.0576 68.4056
z
" clip-path="url(#p322535ac07)"/>
   </g>
   <g id="patch_13">
    <path d="M 135.5 41.6
Q 154.61 41.6 172.713769 41.6
" clip-path="url(#p322535ac07)" style="fill: none; stroke: #000000; stroke-width: 0.9; stroke-linecap: round"/>
    <path d="M 168.713769 39.6
L 172.713769 41.6
L 168.713769 43.6
z
" clip-path="url(#p322535ac07)" style="stroke: #000000; stroke-width: 0.9; stroke-linecap: round"/>
   </g>
   <g id="patch_14">
    <path d="M 182.3 71.12
Q 170.21 71.12 159.126231 71.12
" clip-path="url(#p322535ac07)" style="fill: none; stroke: #000000; stroke-width: 0.9; stroke-linecap: round"/>
    <path d="M 163.126231 73.12
L 159.126231 71.12
L 163.126231 69.12
z
" clip-path="url(#p322535ac07)" style="stroke: #000000; stroke-width: 0.9; stroke-linecap: round"/>
   </g>
   <g id="patch_15">
    <path d="M 96 56
Q 104 56 110.993769 56
" clip-path="url(#p322535ac07)" style="fill: none; stroke: #000000; stroke-width: 0.9; stroke-linecap: round"/>
    <path d="M 106.993769 54
L 110.993769 56
L 106.993769 58
z
" clip-path="url(#p322535ac07)" style="stroke: #000000; stroke-width: 0.9; stroke-linecap: round"/>
   </g>
   <g id="line2d_1">
    <path d="M 21 56.36
L 85 56.36
" clip-path="url(#p322535ac07)" style="fill: none; stroke-dasharray: 2.4,2.4; stroke-dashoffset: 0; stroke: #333333; stroke-width: 0.6"/>
   </g>
   <g id="line2d_2">
    <path d="M 123 56.36
L 187 56.36
" clip-path="url(#p322535ac07)" style="fill: none; stroke-dasharray: 2.4,2.4; stroke-dashoffset: 0; stroke: #333333; stroke-width: 0.6"/>
   </g>
   <g id="patch_16">
    <path d="M 13 146
L 209 146
Q 212 146 212 143
L 212 104
Q 212 101 209 101
L 13 101
Q 10 101 10 104
L 10 143
Q 10 146 13 146
z
" clip-path="url(#p322535ac07)" style="fill: #e2f0d9; stroke: #000000; stroke-width: 0.8; stroke-linejoin: miter"/>
   </g>
   <g id="text_1">
    <text style="font-weight: 700; font-size: 10.5px; font-family: 'Arial'; text-anchor: start" x="8" y="10.717183" transform="rotate(-0 8 10.717183)">(a) Reference construction from configuration-matched service tests</text>
   </g>
   <g id="text_2">
    <text style="font-size: 8.8px; font-family: 'Arial'; text-anchor: middle" x="53" y="28.277344" transform="rotate(-0 53 28.277344)">No-robot baseline</text>
   </g>
   <g id="text_3">
    <text style="font-size: 8.8px; font-family: 'Arial'; text-anchor: middle" x="155" y="28.277344" transform="rotate(-0 155 28.277344)">Mixed-flow test</text>
   </g>
   <g id="text_4">
    <text style="font-size: 8.5px; font-family: 'Arial'; text-anchor: middle" x="104" y="86.199624" transform="rotate(-0 104 86.199624)">30 original seeds per flow</text>
   </g>
   <g id="text_5">
    <text style="font-size: 8.5px; font-family: 'Arial'" transform="translate(68.027852 115.777866)">Speed retention ≥ 0.90</text>
    <text style="font-size: 8.5px; font-family: 'Arial'" transform="translate(69.456914 125.699375)">Density ≤ 1.20 ped/m²</text>
    <text style="font-size: 8.5px; font-family: 'Arial'" transform="translate(25.82668 135.631509)">Throughput 0.90–1.20 when denominator &gt; 0</text>
   </g>
   <g id="text_6">
    <text style="font-weight: 700; font-size: 10.5px; font-family: 'Arial'; text-anchor: start" x="8" y="171.717183" transform="rotate(-0 8 171.717183)">(b) Robot access and directly tested service</text>
   </g>
   <g id="text_7">
    <text style="font-size: 8.5px; font-family: 'Arial'; text-anchor: start; fill: #333333" x="8" y="321.199624" transform="rotate(-0 8 321.199624)">All positive recommendations directly tested; zero admission is not a service PASS.</text>
   </g>
  </g>
  <g id="scan">
   <g id="patch_17">
    <path d="M 250 119
L 400 119
L 400 29
L 250 29
z
" style="fill: #ffffff"/>
   </g>
   <g id="matplotlib.axis_1">
    <g id="xtick_1">
     <g id="line2d_3">
      <defs>
       <path id="m687660b526" d="M 0 0
L 0 3.5
" style="stroke: #000000; stroke-width: 0.8"/>
      </defs>
      <g>
       <use xlink:href="#m687660b526" x="250" y="119" style="stroke: #000000; stroke-width: 0.8"/>
      </g>
     </g>
     <g id="text_8">
      <text style="font-size: 9px; font-family: 'Arial'; text-anchor: middle" x="250" y="132.552246" transform="rotate(-0 250 132.552246)">0</text>
     </g>
    </g>
    <g id="xtick_2">
     <g id="line2d_4">
      <g>
       <use xlink:href="#m687660b526" x="287.5" y="119" style="stroke: #000000; stroke-width: 0.8"/>
      </g>
     </g>
     <g id="text_9">
      <text style="font-size: 9px; font-family: 'Arial'; text-anchor: middle" x="287.5" y="132.552246" transform="rotate(-0 287.5 132.552246)">5</text>
     </g>
    </g>
    <g id="xtick_3">
     <g id="line2d_5">
      <g>
       <use xlink:href="#m687660b526" x="325" y="119" style="stroke: #000000; stroke-width: 0.8"/>
      </g>
     </g>
     <g id="text_10">
      <text style="font-size: 9px; font-family: 'Arial'; text-anchor: middle" x="325" y="132.552246" transform="rotate(-0 325 132.552246)">10</text>
     </g>
    </g>
    <g id="xtick_4">
     <g id="line2d_6">
      <g>
       <use xlink:href="#m687660b526" x="362.5" y="119" style="stroke: #000000; stroke-width: 0.8"/>
      </g>
     </g>
     <g id="text_11">
      <text style="font-size: 9px; font-family: 'Arial'; text-anchor: middle" x="362.5" y="132.552246" transform="rotate(-0 362.5 132.552246)">15</text>
     </g>
    </g>
    <g id="xtick_5">
     <g id="line2d_7">
      <g>
       <use xlink:href="#m687660b526" x="400" y="119" style="stroke: #000000; stroke-width: 0.8"/>
      </g>
     </g>
     <g id="text_12">
      <text style="font-size: 9px; font-family: 'Arial'; text-anchor: middle" x="400" y="132.552246" transform="rotate(-0 400 132.552246)">20</text>
     </g>
    </g>
    <g id="text_13">
     <text style="font-size: 8.5px; font-family: 'Arial'; text-anchor: middle" x="325" y="141.634521" transform="rotate(-0 325 141.634521)">Robot flow (robots/min)</text>
    </g>
   </g>
   <g id="matplotlib.axis_2">
    <g id="ytick_1">
     <g id="line2d_8">
      <defs>
       <path id="md0df7b883f" d="M 0 0
L -3.5 0
" style="stroke: #000000; stroke-width: 0.8"/>
      </defs>
      <g>
       <use xlink:href="#md0df7b883f" x="250" y="101.692308" style="stroke: #000000; stroke-width: 0.8"/>
      </g>
     </g>
     <g id="text_14">
      <text style="font-size: 9px; font-family: 'Arial'; text-anchor: end" x="243" y="104.968431" transform="rotate(-0 243 104.968431)">40</text>
     </g>
    </g>
    <g id="ytick_2">
     <g id="line2d_9">
      <g>
       <use xlink:href="#md0df7b883f" x="250" y="67.076923" style="stroke: #000000; stroke-width: 0.8"/>
      </g>
     </g>
     <g id="text_15">
      <text style="font-size: 9px; font-family: 'Arial'; text-anchor: end" x="243" y="70.353046" transform="rotate(-0 243 70.353046)">70</text>
     </g>
    </g>
    <g id="ytick_3">
     <g id="line2d_10">
      <g>
       <use xlink:href="#md0df7b883f" x="250" y="32.461538" style="stroke: #000000; stroke-width: 0.8"/>
      </g>
     </g>
     <g id="text_16">
      <text style="font-size: 9px; font-family: 'Arial'; text-anchor: end" x="243" y="35.737662" transform="rotate(-0 243 35.737662)">100</text>
     </g>
    </g>
    <g id="text_17">
     <text style="font-size: 8.5px; font-family: 'Arial'; text-anchor: middle" x="225.196484" y="74" transform="rotate(-90 225.196484 74)">Seeds passing (%)</text>
    </g>
   </g>
   <g id="line2d_11">
    <path d="M 257.5 32.461538
L 265 32.461538
L 272.5 32.461538
L 280 32.461538
L 287.5 32.461538
L 295 32.461538
L 310 32.461538
L 317.5 32.461538
L 325 36.307692
L 332.5 32.461538
L 340 40.153846
L 362.5 55.538462
L 385 109.384615
" clip-path="url(#pc86b4527aa)" style="fill: none; stroke: #333333; stroke-width: 0.9; stroke-linecap: square"/>
    <defs>
     <path id="mc38c588066" d="M 0 1.5
C 0.397805 1.5 0.77937 1.341951 1.06066 1.06066
C 1.341951 0.77937 1.5 0.397805 1.5 0
C 1.5 -0.397805 1.341951 -0.77937 1.06066 -1.06066
C 0.77937 -1.341951 0.397805 -1.5 0 -1.5
C -0.397805 -1.5 -0.77937 -1.341951 -1.06066 -1.06066
C -1.341951 -0.77937 -1.5 -0.397805 -1.5 0
C -1.5 0.397805 -1.341951 0.77937 -1.06066 1.06066
C -0.77937 1.341951 -0.397805 1.5 0 1.5
z
" style="stroke: #333333"/>
    </defs>
    <g clip-path="url(#pc86b4527aa)">
     <use xlink:href="#mc38c588066" x="257.5" y="32.461538" style="fill: #333333; stroke: #333333"/>
     <use xlink:href="#mc38c588066" x="265" y="32.461538" style="fill: #333333; stroke: #333333"/>
     <use xlink:href="#mc38c588066" x="272.5" y="32.461538" style="fill: #333333; stroke: #333333"/>
     <use xlink:href="#mc38c588066" x="280" y="32.461538" style="fill: #333333; stroke: #333333"/>
     <use xlink:href="#mc38c588066" x="287.5" y="32.461538" style="fill: #333333; stroke: #333333"/>
     <use xlink:href="#mc38c588066" x="295" y="32.461538" style="fill: #333333; stroke: #333333"/>
     <use xlink:href="#mc38c588066" x="310" y="32.461538" style="fill: #333333; stroke: #333333"/>
     <use xlink:href="#mc38c588066" x="317.5" y="32.461538" style="fill: #333333; stroke: #333333"/>
     <use xlink:href="#mc38c588066" x="325" y="36.307692" style="fill: #333333; stroke: #333333"/>
     <use xlink:href="#mc38c588066" x="332.5" y="32.461538" style="fill: #333333; stroke: #333333"/>
     <use xlink:href="#mc38c588066" x="340" y="40.153846" style="fill: #333333; stroke: #333333"/>
     <use xlink:href="#mc38c588066" x="362.5" y="55.538462" style="fill: #333333; stroke: #333333"/>
     <use xlink:href="#mc38c588066" x="385" y="109.384615" style="fill: #333333; stroke: #333333"/>
    </g>
   </g>
   <g id="line2d_12">
    <path d="M 250 36.307692
L 400 36.307692
" clip-path="url(#pc86b4527aa)" style="fill: none; stroke-dasharray: 2.59,1.12; stroke-dashoffset: 0; stroke: #1a3b5c; stroke-width: 0.7"/>
   </g>
   <g id="patch_18">
    <path d="M 250 119
L 250 29
" style="fill: none; stroke: #000000; stroke-width: 0.8; stroke-linejoin: miter; stroke-linecap: square"/>
   </g>
   <g id="patch_19">
    <path d="M 250 119
L 400 119
" style="fill: none; stroke: #000000; stroke-width: 0.8; stroke-linejoin: miter; stroke-linecap: square"/>
   </g>
   <g id="text_18">
    <text style="font-size: 8.3px; font-family: 'Arial'; text-anchor: end; fill: #1a3b5c" x="398" y="31.557118" transform="rotate(-0 398 31.557118)">29/30</text>
   </g>
   <g id="patch_20">
    <path d="M 325.241601 46.692107
Q 328.416265 40.46797 331.23533 34.941007
" style="fill: none; stroke: #1a3b5c; stroke-width: 0.7; stroke-linecap: round"/>
    <path d="M 328.1761 37.197355
L 331.23533 34.941007
L 331.20487 38.7422
" style="fill: none; stroke: #1a3b5c; stroke-width: 0.7; stroke-linecap: round"/>
   </g>
   <g id="text_19">
    <!-- $q^*=11$ -->
    <g style="fill: #1a3b5c" transform="translate(304.5 58.461538)">
     <text>
      <tspan x="0" y="-0.07075" style="font-style: oblique; font-size: 8.5px; font-family: 'DejaVu Sans'; fill: #1a3b5c">q</tspan>
      <tspan x="6.950741" y="-3.58125" style="font-size: 5.95px; font-family: 'DejaVu Sans'; fill: #1a3b5c">*</tspan>
      <tspan x="12.973372" y="-0.07075" style="font-size: 8.5px; font-family: 'DejaVu Sans'; fill: #1a3b5c">=</tspan>
      <tspan x="21.751449" y="-0.07075" style="font-size: 8.5px; font-family: 'DejaVu Sans'; fill: #1a3b5c">1</tspan>
      <tspan x="27.159408" y="-0.07075" style="font-size: 8.5px; font-family: 'DejaVu Sans'; fill: #1a3b5c">1</tspan>
     </text>
    </g>
   </g>
  </g>
  <g id="tradeoff">
   <g id="patch_21">
    <path d="M 55 276
L 387 276
L 387 194
L 55 194
z
" style="fill: #ffffff"/>
   </g>
   <g id="matplotlib.axis_3">
    <g id="xtick_6">
     <g id="line2d_13">
      <path d="M 55 276
L 55 194
" clip-path="url(#p3b2aeab935)" style="fill: none; stroke: #e0e0e0; stroke-width: 0.5; stroke-linecap: square"/>
     </g>
     <g id="line2d_14">
      <g>
       <use xlink:href="#m687660b526" x="55" y="276" style="stroke: #000000; stroke-width: 0.8"/>
      </g>
     </g>
     <g id="text_20">
      <text style="font-size: 9px; font-family: 'Arial'; text-anchor: middle" x="55" y="289.552246" transform="rotate(-0 55 289.552246)">0</text>
     </g>
    </g>
    <g id="xtick_7">
     <g id="line2d_15">
      <path d="M 119.780488 276
L 119.780488 194
" clip-path="url(#p3b2aeab935)" style="fill: none; stroke: #e0e0e0; stroke-width: 0.5; stroke-linecap: square"/>
     </g>
     <g id="line2d_16">
      <g>
       <use xlink:href="#m687660b526" x="119.780488" y="276" style="stroke: #000000; stroke-width: 0.8"/>
      </g>
     </g>
     <g id="text_21">
      <text style="font-size: 9px; font-family: 'Arial'; text-anchor: middle" x="119.780488" y="289.552246" transform="rotate(-0 119.780488 289.552246)">40</text>
     </g>
    </g>
    <g id="xtick_8">
     <g id="line2d_17">
      <path d="M 184.560976 276
L 184.560976 194
" clip-path="url(#p3b2aeab935)" style="fill: none; stroke: #e0e0e0; stroke-width: 0.5; stroke-linecap: square"/>
     </g>
     <g id="line2d_18">
      <g>
       <use xlink:href="#m687660b526" x="184.560976" y="276" style="stroke: #000000; stroke-width: 0.8"/>
      </g>
     </g>
     <g id="text_22">
      <text style="font-size: 9px; font-family: 'Arial'; text-anchor: middle" x="184.560976" y="289.552246" transform="rotate(-0 184.560976 289.552246)">80</text>
     </g>
    </g>
    <g id="xtick_9">
     <g id="line2d_19">
      <path d="M 249.341463 276
L 249.341463 194
" clip-path="url(#p3b2aeab935)" style="fill: none; stroke: #e0e0e0; stroke-width: 0.5; stroke-linecap: square"/>
     </g>
     <g id="line2d_20">
      <g>
       <use xlink:href="#m687660b526" x="249.341463" y="276" style="stroke: #000000; stroke-width: 0.8"/>
      </g>
     </g>
     <g id="text_23">
      <text style="font-size: 9px; font-family: 'Arial'; text-anchor: middle" x="249.341463" y="289.552246" transform="rotate(-0 249.341463 289.552246)">120</text>
     </g>
    </g>
    <g id="xtick_10">
     <g id="line2d_21">
      <path d="M 314.121951 276
L 314.121951 194
" clip-path="url(#p3b2aeab935)" style="fill: none; stroke: #e0e0e0; stroke-width: 0.5; stroke-linecap: square"/>
     </g>
     <g id="line2d_22">
      <g>
       <use xlink:href="#m687660b526" x="314.121951" y="276" style="stroke: #000000; stroke-width: 0.8"/>
      </g>
     </g>
     <g id="text_24">
      <text style="font-size: 9px; font-family: 'Arial'; text-anchor: middle" x="314.121951" y="289.552246" transform="rotate(-0 314.121951 289.552246)">160</text>
     </g>
    </g>
    <g id="xtick_11">
     <g id="line2d_23">
      <path d="M 378.902439 276
L 378.902439 194
" clip-path="url(#p3b2aeab935)" style="fill: none; stroke: #e0e0e0; stroke-width: 0.5; stroke-linecap: square"/>
     </g>
     <g id="line2d_24">
      <g>
       <use xlink:href="#m687660b526" x="378.902439" y="276" style="stroke: #000000; stroke-width: 0.8"/>
      </g>
     </g>
     <g id="text_25">
      <text style="font-size: 9px; font-family: 'Arial'; text-anchor: middle" x="378.902439" y="289.552246" transform="rotate(-0 378.902439 289.552246)">200</text>
     </g>
    </g>
    <g id="text_26">
     <text style="font-size: 9.5px; font-family: 'Arial'; text-anchor: middle" x="221" y="302.362549" transform="rotate(-0 221 302.362549)">Evaluated scenarios (n = 164)</text>
    </g>
   </g>
   <g id="matplotlib.axis_4">
    <g id="ytick_4">
     <g id="line2d_25">
      <g>
       <use xlink:href="#md0df7b883f" x="55" y="205.714286" style="stroke: #000000; stroke-width: 0.8"/>
      </g>
     </g>
     <g id="text_27">
      <text style="font-size: 9px; font-family: 'Arial'; text-anchor: end" x="48" y="208.990409" transform="rotate(-0 48 208.990409)">M0</text>
     </g>
    </g>
    <g id="ytick_5">
     <g id="line2d_26">
      <g>
       <use xlink:href="#md0df7b883f" x="55" y="225.238095" style="stroke: #000000; stroke-width: 0.8"/>
      </g>
     </g>
     <g id="text_28">
      <text style="font-size: 9px; font-family: 'Arial'; text-anchor: end" x="48" y="228.514218" transform="rotate(-0 48 228.514218)">M1</text>
     </g>
    </g>
    <g id="ytick_6">
     <g id="line2d_27">
      <g>
       <use xlink:href="#md0df7b883f" x="55" y="244.761905" style="stroke: #000000; stroke-width: 0.8"/>
      </g>
     </g>
     <g id="text_29">
      <text style="font-size: 9px; font-family: 'Arial'; text-anchor: end" x="48" y="248.038028" transform="rotate(-0 48 248.038028)">M2</text>
     </g>
    </g>
    <g id="ytick_7">
     <g id="line2d_28">
      <g>
       <use xlink:href="#md0df7b883f" x="55" y="264.285714" style="stroke: #000000; stroke-width: 0.8"/>
      </g>
     </g>
     <g id="text_30">
      <text style="font-size: 9px; font-family: 'Arial'; text-anchor: end" x="48" y="267.561837" transform="rotate(-0 48 267.561837)">M3</text>
     </g>
    </g>
   </g>
   <g id="patch_22">
    <path d="M 55 200.345238
L 213.712195 200.345238
L 213.712195 211.083333
L 55 211.083333
z
" clip-path="url(#p3b2aeab935)" style="fill: #2ca02c; stroke: #ffffff; stroke-width: 0.4; stroke-linejoin: miter"/>
   </g>
   <g id="patch_23">
    <path d="M 213.712195 200.345238
L 213.712195 200.345238
L 213.712195 211.083333
L 213.712195 211.083333
z
" clip-path="url(#p3b2aeab935)" style="fill: #d62728; stroke: #ffffff; stroke-width: 0.4; stroke-linejoin: miter"/>
   </g>
   <g id="patch_24">
    <path d="M 213.712195 200.345238
L 320.6 200.345238
L 320.6 211.083333
L 213.712195 211.083333
z
" clip-path="url(#p3b2aeab935)" style="fill: #b7bdc2; stroke: #ffffff; stroke-width: 0.4; stroke-linejoin: miter"/>
   </g>
   <g id="patch_25">
    <path d="M 55 219.869048
L 246.102439 219.869048
L 246.102439 230.607143
L 55 230.607143
z
" clip-path="url(#p3b2aeab935)" style="fill: #2ca02c; stroke: #ffffff; stroke-width: 0.4; stroke-linejoin: miter"/>
   </g>
   <g id="patch_26">
    <path d="M 246.102439 219.869048
L 275.253659 219.869048
L 275.253659 230.607143
L 246.102439 230.607143
z
" clip-path="url(#p3b2aeab935)" style="fill: #d62728; stroke: #ffffff; stroke-width: 0.4; stroke-linejoin: miter"/>
   </g>
   <g id="patch_27">
    <path d="M 275.253659 219.869048
L 320.6 219.869048
L 320.6 230.607143
L 275.253659 230.607143
z
" clip-path="url(#p3b2aeab935)" style="fill: #b7bdc2; stroke: #ffffff; stroke-width: 0.4; stroke-linejoin: miter"/>
   </g>
   <g id="patch_28">
    <path d="M 55 239.392857
L 150.55122 239.392857
L 150.55122 250.130952
L 55 250.130952
z
" clip-path="url(#p3b2aeab935)" style="fill: #2ca02c; stroke: #ffffff; stroke-width: 0.4; stroke-linejoin: miter"/>
   </g>
   <g id="patch_29">
    <path d="M 150.55122 239.392857
L 150.55122 239.392857
L 150.55122 250.130952
L 150.55122 250.130952
z
" clip-path="url(#p3b2aeab935)" style="fill: #d62728; stroke: #ffffff; stroke-width: 0.4; stroke-linejoin: miter"/>
   </g>
   <g id="patch_30">
    <path d="M 150.55122 239.392857
L 320.6 239.392857
L 320.6 250.130952
L 150.55122 250.130952
z
" clip-path="url(#p3b2aeab935)" style="fill: #b7bdc2; stroke: #ffffff; stroke-width: 0.4; stroke-linejoin: miter"/>
   </g>
   <g id="patch_31">
    <path d="M 55 258.916667
L 210.473171 258.916667
L 210.473171 269.654762
L 55 269.654762
z
" clip-path="url(#p3b2aeab935)" style="fill: #2ca02c; stroke: #ffffff; stroke-width: 0.4; stroke-linejoin: miter"/>
   </g>
   <g id="patch_32">
    <path d="M 210.473171 258.916667
L 213.712195 258.916667
L 213.712195 269.654762
L 210.473171 269.654762
z
" clip-path="url(#p3b2aeab935)" style="fill: #d62728; stroke: #ffffff; stroke-width: 0.4; stroke-linejoin: miter"/>
   </g>
   <g id="patch_33">
    <path d="M 213.712195 258.916667
L 320.6 258.916667
L 320.6 269.654762
L 213.712195 269.654762
z
" clip-path="url(#p3b2aeab935)" style="fill: #b7bdc2; stroke: #ffffff; stroke-width: 0.4; stroke-linejoin: miter"/>
   </g>
   <g id="patch_34">
    <path d="M 55 276
L 55 194
" style="fill: none; stroke: #000000; stroke-width: 0.8; stroke-linejoin: miter; stroke-linecap: square"/>
   </g>
   <g id="patch_35">
    <path d="M 55 276
L 387 276
" style="fill: none; stroke: #000000; stroke-width: 0.8; stroke-linejoin: miter; stroke-linecap: square"/>
   </g>
   <g id="text_31">
    <text style="font-size: 8px; font-family: 'Arial'; text-anchor: start" x="321.89561" y="207.784598" transform="rotate(-0 321.89561 207.784598)">P 98 · Z 66</text>
   </g>
   <g id="text_32">
    <text style="font-size: 8px; font-family: 'Arial'; text-anchor: start" x="321.89561" y="227.308408" transform="rotate(-0 321.89561 227.308408)">P 136 · Z 28</text>
   </g>
   <g id="text_33">
    <text style="font-size: 8px; font-family: 'Arial'; text-anchor: start" x="321.89561" y="246.832217" transform="rotate(-0 321.89561 246.832217)">P 59 · Z 105</text>
   </g>
   <g id="text_34">
    <text style="font-size: 8px; font-family: 'Arial'; text-anchor: start" x="321.89561" y="266.356027" transform="rotate(-0 321.89561 266.356027)">P 98 · Z 66</text>
   </g>
   <g id="legend_1">
    <g id="patch_36">
     <path d="M 168.326875 186.52875
L 176.326875 186.52875
L 176.326875 180.92875
L 168.326875 180.92875
z
" style="fill: #2ca02c; stroke: #ffffff; stroke-width: 0.4; stroke-linejoin: miter"/>
    </g>
    <g id="text_35">
     <text style="font-size: 8px; font-family: 'Arial'; text-anchor: start" x="182.726875" y="186.52875" transform="rotate(-0 182.726875 186.52875)">PASS</text>
    </g>
    <g id="patch_37">
     <path d="M 211.478125 186.52875
L 219.478125 186.52875
L 219.478125 180.92875
L 211.478125 180.92875
z
" style="fill: #d62728; stroke: #ffffff; stroke-width: 0.4; stroke-linejoin: miter"/>
    </g>
    <g id="text_36">
     <text style="font-size: 8px; font-family: 'Arial'; text-anchor: start" x="225.878125" y="186.52875" transform="rotate(-0 225.878125 186.52875)">FAIL</text>
    </g>
    <g id="patch_38">
     <path d="M 250.330625 186.52875
L 258.330625 186.52875
L 258.330625 180.92875
L 250.330625 180.92875
z
" style="fill: #b7bdc2; stroke: #ffffff; stroke-width: 0.4; stroke-linejoin: miter"/>
    </g>
    <g id="text_37">
     <text style="font-size: 8px; font-family: 'Arial'; text-anchor: start" x="264.730625" y="186.52875" transform="rotate(-0 264.730625 186.52875)">ZERO</text>
    </g>
   </g>
  </g>
 </g>
 <defs>
  <clipPath id="p322535ac07">
   <rect x="0" y="0" width="414" height="330"/>
  </clipPath>
  <clipPath id="pc86b4527aa">
   <rect x="250" y="29" width="150" height="90"/>
  </clipPath>
  <clipPath id="p3b2aeab935">
   <rect x="55" y="194" width="332" height="82"/>
  </clipPath>
 </defs>
</svg>
